# xmcd
# 
# Track frame offsets:
#     150
#     22352
#     41810
#     61345
#     82247
#     103270
#     122015
#     139657
#     158835
#     174675
#     194692
# 
# Disc length: 2804
# 
# Revision: 7
# Processed by: cddbd v1.5.2PL0 Copyright (c) Steve Scherf et al.
# Submitted via: BonkEnc v1.0.6
# 
DISCID=a70af20b
DTITLE=Chitãozinho and Xororó - Cowboy Do Asfalto
DYEAR=1990
DGENRE=Country
TTITLE0=Evidências
TTITLE1=Natureza, Espelho De Deus
TTITLE2=É Assim Que Te Amo
TTITLE3=Tô  Deixando Você
TTITLE4=Bom Dia
TTITLE5=Nuvem De Lágrimas
TTITLE6=Cowboy Do Asfalto
TTITLE7=Meus Direitos
TTITLE8=Gente Humilde
TTITLE9=Sem Estória, Sem Destino
TTITLE10=Longe
EXTD=YEAR: 1990
EXTT0=(José  Augusto - Paulo S rgio Valle)
EXTT1=(Paulo Debé tio - Paulinho Rezende)
EXTT2=(The Air That I Breathe)(Hammond - Hazlewood - Versão: Xororó)
EXTT3=(Chico Roque - Carlos Colla)
EXTT4=(Mário Marcos)
EXTT5=(Paulo Debétio - Paulinho Rezende)
EXTT6=(Joel Marques)
EXTT7=(Roberta Miranda)
EXTT8=(Garôto - Chico Buarque - Vinícius de Moraes)
EXTT9=(Paulo Debétio - Paulinho Rezende)
EXTT10=(José  Fortuna - Carlos César)
PLAYORDER=
